<svg width="1600" height="900" viewBox="0 0 1600 900" fill="none" xmlns="http://www.w3.org/2000/svg">
  <defs>
    <linearGradient id="sky" x1="0" y1="0" x2="0" y2="1">
      <stop offset="0" stop-color="#0f2b2a"/>
      <stop offset="0.5" stop-color="#1c3d3a"/>
      <stop offset="1" stop-color="#0b1818"/>
    </linearGradient>
    <radialGradient id="sun" cx="0" cy="0" r="1" gradientUnits="userSpaceOnUse" gradientTransform="translate(1200 210) rotate(90) scale(220)">
      <stop stop-color="#ffd08a" stop-opacity="0.9"/>
      <stop offset="1" stop-color="#ffd08a" stop-opacity="0"/>
    </radialGradient>
    <linearGradient id="mist" x1="0" y1="0" x2="1" y2="0">
      <stop stop-color="#d7f2ee" stop-opacity="0.16"/>
      <stop offset="1" stop-color="#d7f2ee" stop-opacity="0.02"/>
    </linearGradient>
  </defs>
  <rect width="1600" height="900" fill="url(#sky)"/>
  <rect width="1600" height="900" fill="url(#sun)"/>
  <path d="M0 490L150 320L300 470L450 250L620 500L780 230L960 510L1160 260L1370 520L1600 360V900H0V490Z" fill="#dbe8ee" fill-opacity="0.85"/>
  <path d="M0 560L180 430L340 560L540 360L700 590L860 400L1040 620L1220 420L1410 610L1600 470V900H0V560Z" fill="#95b0be" fill-opacity="0.65"/>
  <path d="M0 650L220 560L420 640L650 520L900 670L1160 540L1380 660L1600 600V900H0V650Z" fill="#36514d" fill-opacity="0.8"/>
  <ellipse cx="520" cy="740" rx="520" ry="110" fill="url(#mist)"/>
  <ellipse cx="1220" cy="720" rx="430" ry="90" fill="url(#mist)"/>
  <circle cx="180" cy="160" r="1.8" fill="#d0ece5" fill-opacity="0.8"/>
  <circle cx="360" cy="120" r="1.2" fill="#d0ece5" fill-opacity="0.7"/>
  <circle cx="590" cy="180" r="1.5" fill="#d0ece5" fill-opacity="0.7"/>
  <circle cx="820" cy="100" r="1.3" fill="#d0ece5" fill-opacity="0.7"/>
  <circle cx="1040" cy="160" r="1.8" fill="#d0ece5" fill-opacity="0.8"/>
  <circle cx="1320" cy="130" r="1.4" fill="#d0ece5" fill-opacity="0.7"/>
</svg>
