<svg width="900" height="620" viewBox="0 0 900 620" fill="none" xmlns="http://www.w3.org/2000/svg">
  <defs>
    <linearGradient id="bg" x1="0" y1="0" x2="1" y2="1">
      <stop offset="0" stop-color="#20332f"/>
      <stop offset="1" stop-color="#142522"/>
    </linearGradient>
    <radialGradient id="grain" cx="0" cy="0" r="1" gradientUnits="userSpaceOnUse" gradientTransform="translate(440 348) rotate(90) scale(155 230)">
      <stop stop-color="#7f5a3f"/>
      <stop offset="1" stop-color="#4b3626"/>
    </radialGradient>
  </defs>
  <rect width="900" height="620" rx="36" fill="url(#bg)"/>
  <ellipse cx="450" cy="500" rx="280" ry="42" fill="#0d1917"/>
  <ellipse cx="450" cy="392" rx="250" ry="135" fill="#6d4f3a"/>
  <ellipse cx="450" cy="374" rx="250" ry="135" fill="#8a694f"/>
  <ellipse cx="450" cy="360" rx="222" ry="112" fill="url(#grain)"/>
  <circle cx="362" cy="352" r="9" fill="#6c4c37"/>
  <circle cx="388" cy="336" r="8" fill="#60432f"/>
  <circle cx="416" cy="350" r="7" fill="#71523d"/>
  <circle cx="448" cy="334" r="8" fill="#5f4330"/>
  <circle cx="478" cy="349" r="7" fill="#75543e"/>
  <circle cx="510" cy="340" r="8" fill="#644733"/>
  <circle cx="540" cy="355" r="8" fill="#73533d"/>
  <path d="M200 210C310 188 388 190 472 210" stroke="#b79a7f" stroke-opacity="0.45" stroke-width="4" stroke-linecap="round"/>
  <text x="72" y="92" fill="#dceee8" font-family="Arial" font-size="46" font-weight="700">Himalayan Mandwa</text>
  <text x="72" y="138" fill="#9bc5b8" font-family="Arial" font-size="24">Nutrient-rich Uttarakhand supergrain</text>
</svg>
